<?xml version="1.0" encoding="utf-8"?>
<!-- Generator: Adobe Illustrator 26.0.3, SVG Export Plug-In . SVG Version: 6.00 Build 0)  -->
<svg version="1.0" id="katman_1" xmlns="http://www.w3.org/2000/svg" xmlns:xlink="http://www.w3.org/1999/xlink" x="0px" y="0px"
	 viewBox="0 0 600 450" style="enable-background:new 0 0 600 450;" xml:space="preserve">
<style type="text/css">
	.st0{fill-rule:evenodd;clip-rule:evenodd;fill:#8B0042;}
	.st1{fill-rule:evenodd;clip-rule:evenodd;fill:#0055A3;}
	.st2{fill-rule:evenodd;clip-rule:evenodd;fill:#EDC157;}
	.st3{fill-rule:evenodd;clip-rule:evenodd;fill:#69003D;}
	.st4{fill-rule:evenodd;clip-rule:evenodd;fill:#F8E3A2;}
	.st5{fill-rule:evenodd;clip-rule:evenodd;fill:#FFFFFF;}
</style>
<g>
	<path class="st0" d="M156.7,151.3v-48.5c0-5.4,0-9.3-4.3-13.1h29.6c-4.2,3.9-4.3,7.7-4.3,13.1v49c4.1,1.3,7.9,2,12,2
		c5.5,0,10.2-1.7,15.1-5.1l-4,15.8h-48.5C156.5,160.6,156.7,156.6,156.7,151.3 M234.5,164.5h-29.6c4.2-4,4.3-7.9,4.3-13.2v-48.5
		c0-5.4,0-9.3-4.3-13.1h29.6c-4.2,3.9-4.3,7.7-4.3,13.1v48.5C230.2,156.6,230.3,160.6,234.5,164.5 M278.2,155.4
		c11.6,0,19.4-8.8,19.4-24.8c0-19-8.6-30.7-20.7-30.7c-11.4,0-19.3,8.8-19.3,24.7C257.5,143.7,266.1,155.4,278.2,155.4 M235.2,127
		c0-10.3,4.7-20.7,13.4-28.5c7.7-6.8,17.9-10.6,28.9-10.6c25.1,0,42.4,16.2,42.4,39.2c0,10.3-4.8,21-13.4,28.6
		c-7.7,7-17.9,10.6-29,10.6C252.7,166.3,235.2,149.8,235.2,127"/>
	<path class="st0" d="M324.8,145.8v-40.2c0-5.3-0.1-9.6-6-15.9h23.1l34,45.8v-29.6c0-5.1-0.4-9.9-5.3-16.2H392
		c-4.1,6.7-4.4,11.7-4.4,16.6v60.2c-16.2-1.9-21.6-9.6-28.5-18.6l-22.6-29.5v31.8c0,5.7,0.4,9.9,5,14.4h-21.9
		C324.8,158.9,324.8,153.6,324.8,145.8 M415.3,154.1c7.1,0,11.4-3.6,11.4-8.3c0-7.1-7.7-9-18.2-14.5c-10.4-5.3-15.8-12.9-15.8-21.7
		c0-12.7,10.3-21.8,27.5-21.8c6.4,0,12.4,1.2,18.8,3.5V104c-6.3-3.2-11.4-5.1-15.6-5.1c-6,0-9.8,3.3-9.8,7.3
		c0,6.2,7.9,8.4,20.9,15.5C443,126.4,447,133,447,142c0,14-11.6,23.7-29.5,23.7c-7.4,0-14.6-1.4-22.2-4l-3.9-15.9
		C400.2,151.2,407.6,154.1,415.3,154.1"/>
	<path class="st1" d="M215.3,77c2.2,0,3.7-1.7,3.7-4.1c0-2.7-1.5-4.3-3.8-4.3c-0.3,0-0.8,0.1-1.4,0.2v8.1C214.5,77,215,77,215.3,77
		 M214.8,65.2c1.6,0,2.6-1.1,2.6-3c0-1.6-1-2.8-2.5-2.8c-0.2,0-0.6,0-1.1,0.1v5.6C214.3,65.2,214.6,65.2,214.8,65.2 M206.7,76.2V60
		c0-1.8,0-3.1-1.4-4.4h9.3c6.3,0,9.5,2.2,9.5,5.9c0,2.2-1.3,3.9-3.8,5c3.4,1,5.1,3.2,5.1,6.5c0,2-0.7,3.8-2,5.2
		c-1.9,2-4.1,2.4-7.4,2.4h-10.8C206.7,79.3,206.7,78,206.7,76.2 M243.2,63.1c0-2.3-1.3-3.7-3.5-3.7c-0.2,0-0.4,0-0.6,0V68
		C241.8,67.2,243.2,65.6,243.2,63.1L243.2,63.1z M230.6,80.7c1.4-1.3,1.4-2.7,1.4-4.4V60c0-1.8,0-3.1-1.4-4.4h9.8
		c6.5,0,9.7,2.2,9.7,6.7c0,2.7-1.5,4.6-4.6,6.1l4.6,7.8c0.7,1.2,1.8,2.6,3.3,4.2l-4.2,0.4c-0.3,0-0.7,0-1,0c-2.8,0-4.2-1.4-5.9-4.5
		l-3.2-6.4v6.3c0,1.8,0,3.1,1.4,4.4H230.6L230.6,80.7z M266.1,80.7h-9.9c1.4-1.3,1.4-2.6,1.4-4.4V60c0-1.8,0-3.1-1.4-4.4h9.9
		c-1.4,1.3-1.4,2.6-1.4,4.4v16.2C264.6,78,264.7,79.3,266.1,80.7 M279.1,77.2c2.4,0,3.8-1.2,3.8-2.8c0-2.4-2.6-3-6.1-4.8
		c-3.5-1.8-5.3-4.3-5.3-7.3c0-4.3,3.4-7.3,9.2-7.3c2.1,0,4.1,0.4,6.3,1.2v4.2c-2.1-1.1-3.8-1.7-5.2-1.7c-2,0-3.3,1.1-3.3,2.4
		c0,2.1,2.7,2.8,7,5.2c2.9,1.6,4.2,3.8,4.2,6.8c0,4.7-3.9,7.9-9.9,7.9c-2.5,0-4.9-0.5-7.4-1.3l-1.3-5.3
		C274,76.2,276.5,77.2,279.1,77.2 M304.2,77c2.2,0,3.7-1.7,3.7-4.1c0-2.7-1.5-4.3-3.8-4.3c-0.3,0-0.8,0.1-1.4,0.2v8.1
		C303.4,77,303.9,77,304.2,77 M303.7,65.2c1.6,0,2.6-1.1,2.6-3c0-1.6-1-2.8-2.5-2.8c-0.4,0-0.7,0-1.1,0.1v5.6
		C303.2,65.2,303.5,65.2,303.7,65.2 M295.6,76.2V60c0-1.8,0-3.1-1.4-4.4h9.3c6.3,0,9.5,2.2,9.5,5.9c0,2.2-1.3,3.9-3.8,5
		c3.4,1,5.1,3.2,5.1,6.5c0,2-0.7,3.8-2,5.2c-1.9,2-4.1,2.4-7.4,2.4h-10.8C295.6,79.3,295.6,78,295.6,76.2 M330.6,69.7L328,62
		l-2.6,7.7H330.6z M318.8,76.9l5.9-16.8c0.2-0.7,0.5-1.3,0.5-2.1c0-0.9-0.4-1.5-1.2-2.4h8.9l7.1,20.5c0.6,1.8,1.6,3.4,2.8,4.5h-10.9
		c0.9-1,1.3-1.6,1.3-2.6c0-0.5-0.1-1-0.2-1.3l-1.3-3.6h-7.5l-1.2,3.4c-0.2,0.6-0.3,1.1-0.3,1.5c0,0.9,0.4,1.7,1.2,2.5h-7.4
		C317.5,79.5,318.3,78.3,318.8,76.9L318.8,76.9z M346.5,74.4V60.9c0-1.8,0-3.2-2-5.3h7.7l11.4,15.3V61c0-1.7-0.1-3.3-1.8-5.4h7.2
		c-1.4,2.3-1.5,3.9-1.5,5.5v20.1c-5.4-0.6-7.2-3.2-9.5-6.2l-7.6-9.9v10.6c0,1.9,0.2,3.3,1.7,4.8h-7.3
		C346.5,78.8,346.5,77,346.5,74.4 M375.7,76.2V60c0-1.8,0-3.1-1.4-4.4h14.7v5.2c-1.3-1.2-2.2-1.4-3.6-1.4h-2.5v6.2h4.8v4.8
		c-0.6-0.8-1.5-1.3-2.7-1.3h-2.1v7.5c0.9,0.2,1.8,0.3,2.8,0.3c2.5,0,4.4-0.4,6.3-1.9l-1.3,5.5h-16.3C375.7,79.3,375.7,78,375.7,76.2
		"/>
	<path class="st2" d="M293.1,141.9c0,0-19.6-2.5-39.8,5.6c0,0,2.7,3,2.3,5c0,0-28,6.2-38.2,23.6c0,0,4,0.3,5,3
		c0,0-21.5,13.9-22.1,28.2c0,0,8.1,2.3,3.7,6c-4.4,3.7-18.5,9.6-19.1,17.9c0,0,8.7-0.5,6.4,7.6c-0.8,2.8-2.5,9.9-2.5,19.6
		c0,80.9,111.2,137.2,111.2,137.2s111.3-56.3,111.3-137.2c0-1.9-0.5-19.2-5.9-28.5c0,0,1.8-1.2,3.7-1c0,0-0.8-8.5-10.3-19
		c-4.3-4.7-5.6-12.9,0.2-13.5c0,0-0.7-5.1-12-6.9c-2.7-0.5-3.1-0.3-4.7-3c-1.5-2.4-2.5-8-0.7-11.6c0,0-4.4-1.8-7.6,0
		c0,0-9.3-20.4-20.7-23.4c0,0-0.2,1.9-1.9,3c0,0-14.4-16.4-28.5-16.9c0,0,0.1,2.6-1.2,4.4c0,0-15.5-4.7-29-4.2
		C292.8,137.8,294,140.2,293.1,141.9"/>
	<path class="st0" d="M220.8,214.4c0,0-4.6,2.3-11.7,2.8c0,0,4.5,3.5,12.6,3.4C221.7,220.7,221,217.5,220.8,214.4"/>
	<path class="st0" d="M407.5,263.4c-3.9-35.4-21-49.8-21-49.8c7.5-0.6,13.4,5.5,13.4,5.5c-12.1-23.5-24.6-28.6-30-29.7
		c7.7,4.8,13,17,6.1,39.1c-7.2-12.3-14.3-15.6-14.3-15.6c3.9-2.2,9.9,1.2,9.9,1.2c-4.7-11.4-16.3-11.1-16.3-11.1
		c4.9-4.4,13-1.3,13-1.3c-9.5-9.3-24.6-5.4-24.6-5.4s7.6-9.8,18.7-9.2c1.7,0.1,3.4,0.5,5,1.1c1.8-6.4,8.2-8.3,8.2-8.3
		c-10.8-3.2-23.4,5-23.4,5c5.1-11.8,3.8-23.2,3.8-23.2c-8.4,22.4-19.6,32.3-19.6,32.3c10.3-20.1-1.8-45.9-1.8-45.9
		c4.1,26.9-9.2,41.4-9.2,41.4c2.3-32.4-11.8-42.5-11.8-42.5c10.7,16.4,1.8,40.1,1.8,40.1c-6.3-32.8-33.5-39.3-33.5-39.3
		c26.7,16.3,22.7,48.8,22.7,48.8c-5-26.6-26.1-37.3-26.1-37.3c12.7,12.1,14.6,32.5,14.6,32.5c-19.4-39.2-53.9-29.4-53.9-29.4
		c32.8,3,40.4,29.7,40.4,29.7c-20.2-26.5-47.8-18.4-47.8-18.4c21,1.3,29,17.1,29,17.1c-26.8-20.6-50.6,5.8-50.6,5.8
		c7.6-2.5,10.5,1.7,10.5,1.7c-8.2,3.8-11.7,10.2-11.7,10.2c7.6-2.3,11.5-0.8,11.5-0.8c0.1-2,1.3-16.3,13.1-19.8
		c13-3.8,22.3,8.5,22.3,8.5c-16.9-3.6-24.4,5.3-24.4,5.3c9-3,12.8,1.4,12.8,1.4c-12.9,0.5-16.3,11-16.3,11c6.9-3.4,10-1.1,10-1.1
		c-17.9,18-39.2,11.8-39.2,11.8c16.3,10.7,36.5,4.9,36.5,4.9c-17,12.6-38.9,8.6-38.9,8.6c21.9,12.5,34.3,7.4,34.3,7.4
		c-8.8,12.7-35.7,11.9-35.7,11.9c16.6,10.8,35.7,4.8,35.7,4.8c-5,7.7-15.7,8.7-15.7,8.7c10.9,5,18.3,2.6,18.3,2.6
		c-8.6,8.5-27.6,4.8-27.6,4.8c14.7,12,34.2,7.6,34.2,7.6c-19.7,13.8-40.7,1.3-40.7,1.3c14.9,15.9,42,14.5,42,14.5
		c-10.4,7.2-23.1,4.4-23.1,4.4c10.6,8.8,18.9,8.4,18.9,8.4c-11.8,5.1-26.2-1.1-26.2-1.1c12.3,15.1,35.1,14.4,35.1,14.4
		c-7.4,4.9-20.7,2.3-20.7,2.3c19,12.8,35.6,9.8,35.6,9.8c-15,5.9-26.5,2.3-26.5,2.3c19.2,10.3,30.9,9.3,30.9,9.3
		c-6.7,5-13,3.3-13,3.3s13.4,10.8,22.7,17.7c16.1,11,25.2,15.7,25.2,15.7c50.8-28.7,47.2-44.3,47.2-44.3c3.8,3.3,4.8,8.1,4.8,8.1
		c17.7-14.7,19.6-34.8,19.6-34.8c4.2,8-0.4,19.9-0.4,19.9c20.4-22.3,13.2-44.5,13.2-44.5c6.1,2.2,7,16.5,7,16.5
		c21-36.3,1.3-64.7,1.3-64.7C399.8,246.6,407.5,263.4,407.5,263.4"/>
	<path class="st3" d="M407.5,263.4c-3.9-35.4-21-49.8-21-49.8c7.5-0.6,13.4,5.5,13.4,5.5c-12.1-23.5-24.6-28.6-30-29.7
		c7.7,4.8,13,17,6.1,39.1c-7.2-12.3-14.3-15.6-14.3-15.6c3.9-2.2,9.9,1.2,9.9,1.2c-4.7-11.4-16.3-11.1-16.3-11.1
		c4.9-4.4,13-1.3,13-1.3c-9.5-9.3-24.6-5.4-24.6-5.4c-2.4,0.5-3.2,0.7-3.2,0.7s-12.1-1.7-24.3,2.4c-14.4,4.9-15.5,20.7-16.4,20.7
		c-0.9,0-2-15.9-16.4-20.7c-12.2-4.1-24.3-2.4-24.3-2.4s7.4,1.7,7.3,4.2c-0.1,1.6-2.6,2-5.4,2.6c-1.4,0.3-7,1.7-9.8,4.6
		c0,0,6.4-1,7.2,0.8c1,2.2-6.4,6-15.2,9.2c0,0,3.9-0.2,4.9,2c1.3,2.9-1.8,6.6-3.1,8.4c-13.3,18.8-8.4,34.4-2.1,45.2
		c4.2,7.4,17.2,28,17.2,28s-2.5,4.9-1.9,11.7c0.7,8.9,0.7,13,4.8,17.7c1.4,1.7,4.9,6.3,4.5,10.9c-0.6,6,1.3,11.9,7.7,16.3
		c0,0,0.9-2.2,2.5-2.6c0,0,1.8,2.9,8.4,6.4c8.3,4.4,13.1,8.9,13.7,25.9l0.1,0.1c50.8-28.7,47.2-44.3,47.2-44.3
		c3.8,3.3,4.8,8.1,4.8,8.1c17.7-14.7,19.6-34.8,19.6-34.8c4.2,8-0.4,19.9-0.4,19.9c20.4-22.3,13.2-44.5,13.2-44.5
		c6.1,2.2,7,16.5,7,16.5c21-36.3,1.3-64.7,1.3-64.7C399.8,246.6,407.5,263.4,407.5,263.4"/>
	<path class="st2" d="M362.4,258.9c1.5-8.3,0.3-20.1-7.7-30.3c-3.1-3.9-6.3-7.7-9.6-11.6c-2-2.4-5.2-5.4-4.6-7.2
		c1-3,7.9-1.6,7.9-1.6c-2.5-2.9-7.6-3.9-9.8-4.6c-2.4-0.7-5.4-1.1-5.4-2.6c-0.1-2.5,7.3-4.2,7.3-4.2s-12.1-1.7-24.3,2.4
		c-14.4,4.9-15.5,20.7-16.4,20.7s-2-15.9-16.4-20.7c-12.2-4.1-24.3-2.4-24.3-2.4s7.4,1.7,7.3,4.2c-0.1,1.6-2.7,2-5.4,2.6
		c-1.4,0.3-7,1.7-9.8,4.6c0,0,6.4-1,7.2,0.8c1,2.2-6.4,6-15.2,9.2c0,0,3.9-0.2,4.9,2c1.3,2.9-1.8,6.6-3.1,8.4
		c-13.3,18.8-8.4,34.4-2.1,45.2c4.2,7.4,17.2,28,17.2,28c2.8-5.7,7.8-6.8,7.8-6.8c-3.3,2-5.1,5.3-6.1,8.5c7.3-0.8,14.7-0.1,21.8,1.9
		c0.5,0.1,1.3,0.8,1,1.9c-0.3,1.1-1.4,1.1-1.9,0.9c-5.7-1.9-11.7-2.8-17.8-2.8c-8.1,0-16.1,1.7-23.5,5.1l0.2,0.5
		c6.2-2.7,12.8-4.2,19.5-4.5c-0.2,1.2-0.3,2.4-0.3,3.6c6.9-0.9,13.8-0.5,20.5,1.4c0.5,0.1,1.3,0.8,1,1.8c-0.3,1.1-1.4,1.2-1.8,1.1
		c-5-1.6-10.3-2.5-15.6-2.5c-7.6,0-14.9,1.7-21.4,4.8l0.2,0.5c5.4-2.4,11.2-3.8,17.1-4.1c0.1,0.7,0.3,2.6,0.4,3.5l0,0
		c5.9-0.9,11.9-0.5,17.7,1c0.5,0.1,1.4,0.8,1.1,1.8c-0.3,1.2-1.4,1.2-1.9,1.1c-10.7-3.3-22.4-2.5-32.5,2.5l0.2,0.5
		c5-2.3,10.4-3.6,15.9-3.9c0.3,1.4,0.5,2.6,0.6,3.3c1.1,6.5,7.6,8.6,12.2,6.5c0.3-0.2,16.4-7.8,16.9-8c4.5-2.1,7.7-6.3,8.3-11.3
		c0.6,4.9,3.8,9.2,8.3,11.3c0.5,0.2,16.6,7.9,16.9,8c4.5,2.1,11.1,0,12.2-6.5c0.2-0.9,0.4-2,0.6-3.3c5.7,0.2,11.1,1.6,15.9,3.9
		l0.2-0.5c-6-2.9-12.6-4.5-19.2-4.5c-4.6,0-9.1,0.7-13.3,2c-0.4,0.1-1.5,0.1-1.8-1c-0.3-1,0.5-1.7,1-1.9c5.8-1.5,11.8-1.9,17.7-1
		c0-0.2,0.4-2.2,0.5-3.5c6.1,0.3,11.8,1.8,17.1,4.1l0.2-0.5c-6.7-3.1-14-4.8-21.4-4.8c-5.4,0-10.7,0.9-15.6,2.4
		c-0.4,0.1-1.5,0-1.8-1c-0.2-0.8,0.2-1.6,1-1.9c6.7-1.8,13.7-2.3,20.6-1.4c0-1.2-0.1-2.4-0.3-3.6c6.7,0.3,13.3,1.8,19.4,4.5l0.2-0.5
		c-7.4-3.3-15.4-5.1-23.5-5.1c-6.2,0-12.2,1-17.8,2.8c-0.4,0.1-1.6,0-1.8-1c-0.2-0.8,0.2-1.5,1-1.8c7.1-2,14.6-2.7,21.9-1.9l0,0
		c-0.2-0.6-0.4-1.2-0.6-1.7c-2.7-7-9.5-8.5-9.5-8.5s3.5-4.1,0.8-10.7l-3.6-8.6c0,0,6.1,4.8,14.7,5
		C354.5,279.3,360.9,266.8,362.4,258.9"/>
	<path class="st2" d="M295.1,349.1c0,0-2.5,1.3-3.7,4.4c0,0-3.3-2.2-3.6-5.9c0,0-3.4,1.3-4.8,4.5c0,0-3.6-1.4-3.5-5.6
		c0,0-2.4,1.4-3.6,4.2c0,0-4.1-5-3.6-10c0.6-6.6,5.8-8.8,6.6-9.1c4.5-2.2,8.9-4.3,13.4-6.4c2.2-0.9,4.8-1.6,7.6-1.6
		c2.8,0,5.3,0.7,7.6,1.6c0.6,0.3,12.7,6,13.4,6.4c0.8,0.4,6,2.5,6.6,9.1c0.4,4.9-3.3,9.6-3.6,10c0,0-1-2.5-3.6-4.2
		c0,0-0.4,3.9-3.5,5.6c0,0-1-2.9-4.8-4.5c0,0-0.1,3.3-3.6,5.9c0,0-0.9-2.8-4.3-4.4c0,0-0.3,4.1-4.8,6.8
		C299.2,355.9,298.1,350.4,295.1,349.1"/>
	<path class="st4" d="M350,241.3c-0.1-0.3-0.3-0.5-0.6-0.5l-0.3-0.7h0c0.2-0.1,0.6-0.5,0.5-1.2c-0.1-1-0.9-1.3-1.5-1.5
		c-4.2-0.8-6.4-2.5-7.8-3.5c-1.4-1-2.3-1.5-4.1-1.5c-5.2,0-15.2,7.7-18.2,7.7c-0.7,0-1.3-0.4-1.6-0.9c0,0,0,0,0-0.1
		c-3.6,5-1.5,9.8,0,13.4l6.4,15.5l0,0c0,0,1.4-0.9,1.5-2.8c0.1-2.3,2.4-7.5,8.3-7.5c6.3,0,11.4-2.5,13.3-9.5c0.3-1.1,1.1-4.3,3.8-6
		C349.9,242.2,350.2,241.8,350,241.3 M243.8,247.5c1.5-7.3,6.4-6.7,6.7-6.7l0.3-0.7c-0.2-0.1-0.5-0.5-0.5-1.2c0.1-1,0.9-1.3,1.5-1.5
		c4.2-0.8,6.4-2.5,7.8-3.5c1.4-1,2.3-1.4,4-1.4c5.3,0,15.2,7.7,18.2,7.7c0.7,0,1.3-0.4,1.7-0.9c0,0,0,0,0-0.1c3.6,5,1.4,9.8,0,13.4
		c-0.3,0.8-6.1,14.9-6.4,15.5l0,0l-5.9,14.3c-2.7,6.2,0.8,10.7,0.8,10.7c-6.3,0-13.4-5.8-23-21.6
		C243.2,262.1,242.8,252.5,243.8,247.5"/>
	<path class="st3" d="M316.4,239.2c1.1,3,3.8,3,5.5,2.6c1.5-0.4,7.8-2.5,11-3.8c3.3-1.3,4.1-0.7,5.8,0c5,2.2,10.4,2,10.4,2l0.3,0.7
		c-4.1,1.7-5.4,3.5-7.5,6.9c-2,3.2-5.9,5.8-10.6,5.8c-3.6,0-4.9-1.5-6.7-0.9c-1,0.3-2,1.2-2.4,3.3c-0.8,4.8,2.7,10.3,0.5,12.3
		c0,0-6-14.7-6.4-15.6C315,249.1,312.8,244.2,316.4,239.2 M315.2,296.3c-3.2-3.6-9,0-7.1,4.5l-8.2,5.2l-8.2-5.2
		c1.9-4.4-3.9-8.1-7.1-4.5l-3.7-2.3c0,0-4.9-3.2-5.1-6.2c-0.1-1.2,0.7-2.2,2.1-0.2c0.6,0.8,1.3,1.9,3.2,1.9c1.3,0,3.5-2,7.7-2
		c6.3,0,6.9,2.8,11.1,2.8c4.2,0,4.8-2.8,11.1-2.8c4.3,0,6.4,2,7.7,2c1.9,0,2.6-1,3.2-1.9c1.4-2,2.2-1,2.1,0.2
		c-0.2,3-5.1,6.2-5.1,6.2L315.2,296.3z M283.5,239.2c-1.1,3-3.8,3-5.5,2.6c-1.5-0.4-7.7-2.5-11-3.8c-3.3-1.3-4.1-0.7-5.8,0.1
		c-5,2.2-10.4,2-10.4,2l-0.3,0.7c4.1,1.7,5.4,3.5,7.4,6.9c2,3.2,5.9,5.8,10.6,5.8c3.6,0,4.9-1.5,6.7-0.9c1,0.3,2,1.2,2.4,3.3
		c0.8,4.8-5.2,14.8-2.6,17.3l8.4-20.6C284.9,249.1,287,244.2,283.5,239.2"/>
	<path class="st5" d="M331.8,242.4c0,0.6-0.5,1.1-1.1,1.1c-0.6,0-1.1-0.5-1.1-1.1C329.7,241,331.8,241,331.8,242.4"/>
	<path class="st5" d="M331.3,250.1c4.8,0,8.7-3.7,9.1-8.4c-0.7-0.2-1.4-0.5-2-0.8c-1.3-0.6-2.7-0.8-4.2-0.6c1.4,2.1,0.4,5-2,5.8
		c-2.4,0.8-4.9-0.9-5.1-3.5c-1.8,0.7-2.9,1.1-4.4,1.5C324.1,247.7,327.5,250.1,331.3,250.1 M268.1,242.4c0,0.6,0.5,1.1,1.1,1.1
		c0.6,0,1.1-0.5,1.1-1.1C270.2,241,268.1,241,268.1,242.4"/>
	<path class="st5" d="M268.5,250.1c-4.8,0-8.8-3.7-9.1-8.4c0.7-0.2,1.3-0.5,2-0.8c1.3-0.6,2.8-0.8,4.2-0.6c-1.4,2.1-0.4,5,2,5.8
		c2.4,0.8,4.9-0.9,5.1-3.5c1.8,0.7,2.9,1.1,4.4,1.5C275.8,247.7,272.4,250.1,268.5,250.1"/>
</g>
</svg>
